
<svg xmlns="http://www.w3.org/2000/svg" xmlns:xlink="http://www.w3.org/1999/xlink" viewBox="0,0,256,256" width="64px" height="64px"><g fill="#8c51df" fill-rule="nonzero" stroke="none" stroke-width="1" stroke-linecap="butt" stroke-linejoin="miter" stroke-miterlimit="10" stroke-dasharray="" stroke-dashoffset="0" font-family="none" font-weight="none" font-size="none" text-anchor="none" style="mix-blend-mode: normal"><g transform="scale(4,4)"><path d="M13,7v52l17.13672,-9.01953c1.166,-0.614 2.56056,-0.614 3.72656,0l17.13672,9.01953v-12.28125c-0.973,0.179 -1.974,0.28125 -3,0.28125c-8.837,0 -16,-6.94 -16,-15.5c0,-8.56 7.163,-15.5 16,-15.5c1.026,0 2.027,0.10225 3,0.28125v-9.28125zM48,18c-7.18,0 -13,5.82 -13,13c0,7.18 5.82,13 13,13c7.18,0 13,-5.82 13,-13c0,-7.18 -5.82,-13 -13,-13zM47,24h2l1,5l5,1v2l-5,1l-1,5h-2l-1,-5l-5,-1v-2l5,-1z"></path></g></g></svg>